<?xml version="1.0" encoding="UTF-8" standalone="no"?>
<!DOCTYPE svg PUBLIC "-//W3C//DTD SVG 1.1//EN"
 "http://www.w3.org/Graphics/SVG/1.1/DTD/svg11.dtd">
<!-- Generated by graphviz version 2.47.3 (20210619.1520)
 -->
<!-- Title: dependencies Pages: 1 -->
<svg width="1263pt" height="247pt"
 viewBox="0.00 0.00 1263.00 246.80" xmlns="http://www.w3.org/2000/svg" xmlns:xlink="http://www.w3.org/1999/xlink">
<g id="graph0" class="graph" transform="scale(1 1) rotate(0) translate(4 242.8)">
<title>dependencies</title>
<polygon fill="white" stroke="transparent" points="-4,4 -4,-242.8 1259,-242.8 1259,4 -4,4"/>
<text text-anchor="middle" x="627.5" y="-8.2" font-family="sans-serif" font-size="14.00">dependencies</text>
<g id="clust1" class="cluster">
<title>cluster_AppModule</title>
<polygon fill="none" stroke="black" stroke-dasharray="1,5" points="8,-32.8 8,-230.8 1247,-230.8 1247,-32.8 8,-32.8"/>
</g>
<g id="clust9" class="cluster">
<title>cluster_AppModule_imports</title>
<polygon fill="none" stroke="black" points="1095,-40.8 1095,-92.8 1239,-92.8 1239,-40.8 1095,-40.8"/>
</g>
<g id="clust11" class="cluster">
<title>cluster_AppModule_bootstrap</title>
<polygon fill="none" stroke="black" points="510,-170.8 510,-222.8 634,-222.8 634,-170.8 510,-170.8"/>
</g>
<g id="clust12" class="cluster">
<title>cluster_AppModule_providers</title>
<polygon fill="none" stroke="black" points="841,-40.8 841,-92.8 1087,-92.8 1087,-40.8 841,-40.8"/>
</g>
<g id="clust2" class="cluster">
<title>cluster_AppModule_declarations</title>
<polygon fill="none" stroke="black" points="16,-40.8 16,-92.8 833,-92.8 833,-40.8 16,-40.8"/>
</g>
<!-- AppComponent -->
<g id="node1" class="node">
<title>AppComponent</title>
<polygon fill="#ffffb3" stroke="black" points="824.94,-84.8 719.06,-84.8 719.06,-48.8 824.94,-48.8 824.94,-84.8"/>
<text text-anchor="middle" x="772" y="-62.6" font-family="Times,serif" font-size="14.00">AppComponent</text>
</g>
<!-- AppModule -->
<g id="node7" class="node">
<title>AppModule</title>
<polygon fill="#8dd3c7" stroke="black" points="613.66,-149.8 610.66,-153.8 589.66,-153.8 586.66,-149.8 530.34,-149.8 530.34,-113.8 613.66,-113.8 613.66,-149.8"/>
<text text-anchor="middle" x="572" y="-127.6" font-family="Times,serif" font-size="14.00">AppModule</text>
</g>
<!-- AppComponent&#45;&gt;AppModule -->
<g id="edge1" class="edge">
<title>AppComponent&#45;&gt;AppModule</title>
<path fill="none" stroke="black" d="M772,-84.83C772,-101.2 772,-122.8 772,-122.8 772,-122.8 623.93,-122.8 623.93,-122.8"/>
<polygon fill="black" stroke="black" points="623.93,-119.3 613.93,-122.8 623.93,-126.3 623.93,-119.3"/>
</g>
<!-- DetectComponent -->
<g id="node2" class="node">
<title>DetectComponent</title>
<polygon fill="#ffffb3" stroke="black" points="700.86,-84.8 583.14,-84.8 583.14,-48.8 700.86,-48.8 700.86,-84.8"/>
<text text-anchor="middle" x="642" y="-62.6" font-family="Times,serif" font-size="14.00">DetectComponent</text>
</g>
<!-- DetectComponent&#45;&gt;AppModule -->
<g id="edge2" class="edge">
<title>DetectComponent&#45;&gt;AppModule</title>
<path fill="none" stroke="black" d="M598.45,-84.91C598.45,-84.91 598.45,-103.79 598.45,-103.79"/>
<polygon fill="black" stroke="black" points="594.95,-103.79 598.45,-113.79 601.95,-103.79 594.95,-103.79"/>
</g>
<!-- IdentifyComponent -->
<g id="node3" class="node">
<title>IdentifyComponent</title>
<polygon fill="#ffffb3" stroke="black" points="564.65,-84.8 439.35,-84.8 439.35,-48.8 564.65,-48.8 564.65,-84.8"/>
<text text-anchor="middle" x="502" y="-62.6" font-family="Times,serif" font-size="14.00">IdentifyComponent</text>
</g>
<!-- IdentifyComponent&#45;&gt;AppModule -->
<g id="edge3" class="edge">
<title>IdentifyComponent&#45;&gt;AppModule</title>
<path fill="none" stroke="black" d="M547.5,-84.91C547.5,-84.91 547.5,-103.79 547.5,-103.79"/>
<polygon fill="black" stroke="black" points="544,-103.79 547.5,-113.79 551,-103.79 544,-103.79"/>
</g>
<!-- RectangleComponent -->
<g id="node4" class="node">
<title>RectangleComponent</title>
<polygon fill="#ffffb3" stroke="black" points="421.81,-84.8 284.19,-84.8 284.19,-48.8 421.81,-48.8 421.81,-84.8"/>
<text text-anchor="middle" x="353" y="-62.6" font-family="Times,serif" font-size="14.00">RectangleComponent</text>
</g>
<!-- RectangleComponent&#45;&gt;AppModule -->
<g id="edge4" class="edge">
<title>RectangleComponent&#45;&gt;AppModule</title>
<path fill="none" stroke="black" d="M353,-84.83C353,-101.2 353,-122.8 353,-122.8 353,-122.8 520.29,-122.8 520.29,-122.8"/>
<polygon fill="black" stroke="black" points="520.29,-126.3 530.29,-122.8 520.29,-119.3 520.29,-126.3"/>
</g>
<!-- TableComponent -->
<g id="node5" class="node">
<title>TableComponent</title>
<polygon fill="#ffffb3" stroke="black" points="266.7,-84.8 153.3,-84.8 153.3,-48.8 266.7,-48.8 266.7,-84.8"/>
<text text-anchor="middle" x="210" y="-62.6" font-family="Times,serif" font-size="14.00">TableComponent</text>
</g>
<!-- TableComponent&#45;&gt;AppModule -->
<g id="edge5" class="edge">
<title>TableComponent&#45;&gt;AppModule</title>
<path fill="none" stroke="black" d="M210,-84.91C210,-104.14 210,-131.8 210,-131.8 210,-131.8 520.12,-131.8 520.12,-131.8"/>
<polygon fill="black" stroke="black" points="520.12,-135.3 530.12,-131.8 520.12,-128.3 520.12,-135.3"/>
</g>
<!-- TrainComponent -->
<g id="node6" class="node">
<title>TrainComponent</title>
<polygon fill="#ffffb3" stroke="black" points="135.65,-84.8 24.35,-84.8 24.35,-48.8 135.65,-48.8 135.65,-84.8"/>
<text text-anchor="middle" x="80" y="-62.6" font-family="Times,serif" font-size="14.00">TrainComponent</text>
</g>
<!-- TrainComponent&#45;&gt;AppModule -->
<g id="edge6" class="edge">
<title>TrainComponent&#45;&gt;AppModule</title>
<path fill="none" stroke="black" d="M80,-85.09C80,-107.01 80,-140.8 80,-140.8 80,-140.8 520.05,-140.8 520.05,-140.8"/>
<polygon fill="black" stroke="black" points="520.05,-144.3 530.05,-140.8 520.05,-137.3 520.05,-144.3"/>
</g>
<!-- AppComponent  -->
<g id="node9" class="node">
<title>AppComponent </title>
<polygon fill="#80b1d3" stroke="black" points="626.44,-214.8 517.56,-214.8 517.56,-178.8 626.44,-178.8 626.44,-214.8"/>
<text text-anchor="middle" x="572" y="-192.6" font-family="Times,serif" font-size="14.00">AppComponent </text>
</g>
<!-- AppModule&#45;&gt;AppComponent  -->
<g id="edge8" class="edge">
<title>AppModule&#45;&gt;AppComponent </title>
<path fill="none" stroke="black" stroke-dasharray="1,5" d="M572,-149.91C572,-149.91 572,-168.79 572,-168.79"/>
<polygon fill="black" stroke="black" points="568.5,-168.79 572,-178.79 575.5,-168.79 568.5,-168.79"/>
</g>
<!-- AppRoutingModule -->
<g id="node8" class="node">
<title>AppRoutingModule</title>
<polygon fill="#8dd3c7" stroke="black" points="1231.27,-84.8 1228.27,-88.8 1207.27,-88.8 1204.27,-84.8 1102.73,-84.8 1102.73,-48.8 1231.27,-48.8 1231.27,-84.8"/>
<text text-anchor="middle" x="1167" y="-62.6" font-family="Times,serif" font-size="14.00">AppRoutingModule</text>
</g>
<!-- AppRoutingModule&#45;&gt;AppModule -->
<g id="edge7" class="edge">
<title>AppRoutingModule&#45;&gt;AppModule</title>
<path fill="none" stroke="black" d="M1167,-85.09C1167,-107.01 1167,-140.8 1167,-140.8 1167,-140.8 623.84,-140.8 623.84,-140.8"/>
<polygon fill="black" stroke="black" points="623.84,-137.3 613.84,-140.8 623.84,-144.3 623.84,-137.3"/>
</g>
<!-- AzureFaceApiDataService -->
<g id="node10" class="node">
<title>AzureFaceApiDataService</title>
<ellipse fill="#fdb462" stroke="black" cx="964" cy="-66.8" rx="114.54" ry="18"/>
<text text-anchor="middle" x="964" y="-62.6" font-family="Times,serif" font-size="14.00">AzureFaceApiDataService</text>
</g>
<!-- AzureFaceApiDataService&#45;&gt;AppModule -->
<g id="edge9" class="edge">
<title>AzureFaceApiDataService&#45;&gt;AppModule</title>
<path fill="none" stroke="black" d="M964,-84.91C964,-104.14 964,-131.8 964,-131.8 964,-131.8 623.95,-131.8 623.95,-131.8"/>
<polygon fill="black" stroke="black" points="623.95,-128.3 613.95,-131.8 623.95,-135.3 623.95,-128.3"/>
</g>
</g>
</svg>
