<?xml version="1.0" encoding="UTF-8" standalone="no"?>
<!DOCTYPE svg PUBLIC "-//W3C//DTD SVG 1.1//EN"
 "http://www.w3.org/Graphics/SVG/1.1/DTD/svg11.dtd">
<!-- Generated by graphviz version 2.47.3 (20210619.1520)
 -->
<!-- Title: dependencies Pages: 1 -->
<svg width="1263pt" height="247pt"
 viewBox="0.00 0.00 1263.00 246.80" xmlns="http://www.w3.org/2000/svg" xmlns:xlink="http://www.w3.org/1999/xlink">
<g id="graph0" class="graph" transform="scale(1 1) rotate(0) translate(4 242.8)">
<title>dependencies</title>
<polygon fill="white" stroke="transparent" points="-4,4 -4,-242.8 1259,-242.8 1259,4 -4,4"/>
<text text-anchor="middle" x="627.5" y="-8.2" font-family="sans-serif" font-size="14.00">dependencies</text>
<g id="clust1" class="cluster">
<title>cluster_AppModule</title>
<polygon fill="none" stroke="black" stroke-dasharray="1,5" points="8,-32.8 8,-230.8 1247,-230.8 1247,-32.8 8,-32.8"/>
</g>
<g id="clust2" class="cluster">
<title>cluster_AppModule_declarations</title>
<polygon fill="none" stroke="black" points="422,-40.8 422,-92.8 1239,-92.8 1239,-40.8 422,-40.8"/>
</g>
<g id="clust9" class="cluster">
<title>cluster_AppModule_imports</title>
<polygon fill="none" stroke="black" points="270,-40.8 270,-92.8 414,-92.8 414,-40.8 270,-40.8"/>
</g>
<g id="clust11" class="cluster">
<title>cluster_AppModule_bootstrap</title>
<polygon fill="none" stroke="black" points="625,-170.8 625,-222.8 749,-222.8 749,-170.8 625,-170.8"/>
</g>
<g id="clust12" class="cluster">
<title>cluster_AppModule_providers</title>
<polygon fill="none" stroke="black" points="16,-40.8 16,-92.8 262,-92.8 262,-40.8 16,-40.8"/>
</g>
<!-- AppComponent -->
<g id="node1" class="node">
<title>AppComponent</title>
<polygon fill="#ffffb3" stroke="black" points="1230.94,-84.8 1125.06,-84.8 1125.06,-48.8 1230.94,-48.8 1230.94,-84.8"/>
<text text-anchor="middle" x="1178" y="-62.6" font-family="Times,serif" font-size="14.00">AppComponent</text>
</g>
<!-- AppModule -->
<g id="node7" class="node">
<title>AppModule</title>
<polygon fill="#8dd3c7" stroke="black" points="728.66,-149.8 725.66,-153.8 704.66,-153.8 701.66,-149.8 645.34,-149.8 645.34,-113.8 728.66,-113.8 728.66,-149.8"/>
<text text-anchor="middle" x="687" y="-127.6" font-family="Times,serif" font-size="14.00">AppModule</text>
</g>
<!-- AppComponent&#45;&gt;AppModule -->
<g id="edge1" class="edge">
<title>AppComponent&#45;&gt;AppModule</title>
<path fill="none" stroke="black" d="M1178,-85.09C1178,-107.01 1178,-140.8 1178,-140.8 1178,-140.8 738.86,-140.8 738.86,-140.8"/>
<polygon fill="black" stroke="black" points="738.86,-137.3 728.86,-140.8 738.86,-144.3 738.86,-137.3"/>
</g>
<!-- DetectComponent -->
<g id="node2" class="node">
<title>DetectComponent</title>
<polygon fill="#ffffb3" stroke="black" points="1106.86,-84.8 989.14,-84.8 989.14,-48.8 1106.86,-48.8 1106.86,-84.8"/>
<text text-anchor="middle" x="1048" y="-62.6" font-family="Times,serif" font-size="14.00">DetectComponent</text>
</g>
<!-- DetectComponent&#45;&gt;AppModule -->
<g id="edge2" class="edge">
<title>DetectComponent&#45;&gt;AppModule</title>
<path fill="none" stroke="black" d="M1048,-84.91C1048,-104.14 1048,-131.8 1048,-131.8 1048,-131.8 738.76,-131.8 738.76,-131.8"/>
<polygon fill="black" stroke="black" points="738.76,-128.3 728.76,-131.8 738.76,-135.3 738.76,-128.3"/>
</g>
<!-- IdentifyComponent -->
<g id="node3" class="node">
<title>IdentifyComponent</title>
<polygon fill="#ffffb3" stroke="black" points="970.65,-84.8 845.35,-84.8 845.35,-48.8 970.65,-48.8 970.65,-84.8"/>
<text text-anchor="middle" x="908" y="-62.6" font-family="Times,serif" font-size="14.00">IdentifyComponent</text>
</g>
<!-- IdentifyComponent&#45;&gt;AppModule -->
<g id="edge3" class="edge">
<title>IdentifyComponent&#45;&gt;AppModule</title>
<path fill="none" stroke="black" d="M908,-84.83C908,-101.2 908,-122.8 908,-122.8 908,-122.8 738.83,-122.8 738.83,-122.8"/>
<polygon fill="black" stroke="black" points="738.83,-119.3 728.83,-122.8 738.83,-126.3 738.83,-119.3"/>
</g>
<!-- RectangleComponent -->
<g id="node4" class="node">
<title>RectangleComponent</title>
<polygon fill="#ffffb3" stroke="black" points="827.81,-84.8 690.19,-84.8 690.19,-48.8 827.81,-48.8 827.81,-84.8"/>
<text text-anchor="middle" x="759" y="-62.6" font-family="Times,serif" font-size="14.00">RectangleComponent</text>
</g>
<!-- RectangleComponent&#45;&gt;AppModule -->
<g id="edge4" class="edge">
<title>RectangleComponent&#45;&gt;AppModule</title>
<path fill="none" stroke="black" d="M709.59,-84.91C709.59,-84.91 709.59,-103.79 709.59,-103.79"/>
<polygon fill="black" stroke="black" points="706.09,-103.79 709.59,-113.79 713.09,-103.79 706.09,-103.79"/>
</g>
<!-- TableComponent -->
<g id="node5" class="node">
<title>TableComponent</title>
<polygon fill="#ffffb3" stroke="black" points="672.7,-84.8 559.3,-84.8 559.3,-48.8 672.7,-48.8 672.7,-84.8"/>
<text text-anchor="middle" x="616" y="-62.6" font-family="Times,serif" font-size="14.00">TableComponent</text>
</g>
<!-- TableComponent&#45;&gt;AppModule -->
<g id="edge5" class="edge">
<title>TableComponent&#45;&gt;AppModule</title>
<path fill="none" stroke="black" d="M658.89,-84.91C658.89,-84.91 658.89,-103.79 658.89,-103.79"/>
<polygon fill="black" stroke="black" points="655.39,-103.79 658.89,-113.79 662.39,-103.79 655.39,-103.79"/>
</g>
<!-- TrainComponent -->
<g id="node6" class="node">
<title>TrainComponent</title>
<polygon fill="#ffffb3" stroke="black" points="541.65,-84.8 430.35,-84.8 430.35,-48.8 541.65,-48.8 541.65,-84.8"/>
<text text-anchor="middle" x="486" y="-62.6" font-family="Times,serif" font-size="14.00">TrainComponent</text>
</g>
<!-- TrainComponent&#45;&gt;AppModule -->
<g id="edge6" class="edge">
<title>TrainComponent&#45;&gt;AppModule</title>
<path fill="none" stroke="black" d="M486,-84.83C486,-101.2 486,-122.8 486,-122.8 486,-122.8 634.86,-122.8 634.86,-122.8"/>
<polygon fill="black" stroke="black" points="634.86,-126.3 644.86,-122.8 634.86,-119.3 634.86,-126.3"/>
</g>
<!-- AppComponent  -->
<g id="node9" class="node">
<title>AppComponent </title>
<polygon fill="#80b1d3" stroke="black" points="741.44,-214.8 632.56,-214.8 632.56,-178.8 741.44,-178.8 741.44,-214.8"/>
<text text-anchor="middle" x="687" y="-192.6" font-family="Times,serif" font-size="14.00">AppComponent </text>
</g>
<!-- AppModule&#45;&gt;AppComponent  -->
<g id="edge8" class="edge">
<title>AppModule&#45;&gt;AppComponent </title>
<path fill="none" stroke="black" stroke-dasharray="1,5" d="M687,-149.91C687,-149.91 687,-168.79 687,-168.79"/>
<polygon fill="black" stroke="black" points="683.5,-168.79 687,-178.79 690.5,-168.79 683.5,-168.79"/>
</g>
<!-- AppRoutingModule -->
<g id="node8" class="node">
<title>AppRoutingModule</title>
<polygon fill="#8dd3c7" stroke="black" points="406.27,-84.8 403.27,-88.8 382.27,-88.8 379.27,-84.8 277.73,-84.8 277.73,-48.8 406.27,-48.8 406.27,-84.8"/>
<text text-anchor="middle" x="342" y="-62.6" font-family="Times,serif" font-size="14.00">AppRoutingModule</text>
</g>
<!-- AppRoutingModule&#45;&gt;AppModule -->
<g id="edge7" class="edge">
<title>AppRoutingModule&#45;&gt;AppModule</title>
<path fill="none" stroke="black" d="M342,-84.91C342,-104.14 342,-131.8 342,-131.8 342,-131.8 635.04,-131.8 635.04,-131.8"/>
<polygon fill="black" stroke="black" points="635.04,-135.3 645.04,-131.8 635.04,-128.3 635.04,-135.3"/>
</g>
<!-- AzureFaceApiDataService -->
<g id="node10" class="node">
<title>AzureFaceApiDataService</title>
<ellipse fill="#fdb462" stroke="black" cx="139" cy="-66.8" rx="114.54" ry="18"/>
<text text-anchor="middle" x="139" y="-62.6" font-family="Times,serif" font-size="14.00">AzureFaceApiDataService</text>
</g>
<!-- AzureFaceApiDataService&#45;&gt;AppModule -->
<g id="edge9" class="edge">
<title>AzureFaceApiDataService&#45;&gt;AppModule</title>
<path fill="none" stroke="black" d="M139,-85.09C139,-107.01 139,-140.8 139,-140.8 139,-140.8 634.91,-140.8 634.91,-140.8"/>
<polygon fill="black" stroke="black" points="634.91,-144.3 644.91,-140.8 634.91,-137.3 634.91,-144.3"/>
</g>
</g>
</svg>
